<?xml version="1.0" ?>
<!-- Made by adebudiman1988 -->
<svg fill="#000000" width="80px" height="80px" viewBox="0 0 64 64" id="Layer_1" version="1.1" xmlSpace="preserve" xmlns="http://www.w3.org/2000/svg" xmlnsXlink="http://www.w3.org/1999/xlink"><path d="M59,56l-3.6-33.4c-0.2-1.8-1.7-3.1-3.4-3.1h-7.6v-3c0-6.8-5.5-12.3-12.3-12.3c-6.8,0-12.3,5.5-12.3,12.3v3h-7.4  c-1.8,0-3.2,1.3-3.4,3.1L5,55.9c-0.1,1,0.2,2,0.9,2.7c0.7,0.7,1.6,1.2,2.6,1.2l13.8,0c0,0,0,0,0.1,0h2.9l30.3,0.1c0,0,0,0,0,0  c1,0,1.9-0.4,2.6-1.2C58.8,58,59.1,57,59,56z M23.6,16.5c0-4.6,3.7-8.3,8.3-8.3c4.6,0,8.3,3.7,8.3,8.3v3H23.6V16.5z M40.3,55.8H34  v-7.2c0.1,0,0.2-0.1,0.3-0.1c0.2-0.1,0.5-0.2,0.6-0.4c0.2-0.2,0.3-0.4,0.4-0.6c0.1-0.2,0.2-0.5,0.2-0.8c0-0.2,0-0.4-0.1-0.5  c-0.1-0.3-0.3-0.6-0.5-0.9c-0.1-0.1-0.3-0.2-0.4-0.3c-0.2-0.1-0.3-0.2-0.5-0.2v-7.3h6.3V55.8z M30,44.7c-0.1,0-0.2,0.1-0.3,0.1  c-0.2,0.1-0.5,0.2-0.6,0.4c-0.2,0.2-0.3,0.4-0.4,0.6c-0.1,0.2-0.2,0.5-0.2,0.8c0,0.2,0,0.4,0.1,0.5c0.1,0.3,0.3,0.6,0.5,0.9  c0.1,0.1,0.3,0.2,0.4,0.3c0.2,0.1,0.4,0.2,0.6,0.2v7.2h-4.7l-1.6,0V37.4H30V44.7z M44.3,55.9V36.1c0-1.5-1.2-2.7-2.7-2.7H22.3  c-1.5,0-2.7,1.2-2.7,2.7v19.7l-10.6,0l3.7-32.3h38.8L55,55.9L44.3,55.9z"/></svg>